<?xml version="1.0" encoding="utf-8" ?><svg xmlns="http://www.w3.org/2000/svg" xmlns:xlink="http://www.w3.org/1999/xlink" width="1204" height="602" viewBox="0 0 1204 602"><clipPath id="cl_4"><rect y="9.1552734e-05" width="1204.0001" height="602"/></clipPath><g clip-path="url(#cl_4)"><path fill="#FEFEFE" transform="matrix(0.807512 0 0 0.807512 0 -298.577)" d="M525.64 653.34C544.703 652.344 580.572 652.539 597.796 658.824C611.583 663.941 622.732 674.389 628.73 687.816C634.562 700.797 634.907 715.582 629.688 728.822C623.199 745.626 612.04 753.344 596.231 760.259C609.845 780.937 625.169 808.242 637.564 829.883L596.125 829.878L591.23 821.481C579.973 802.478 568.182 783.645 557.303 764.435C551.06 764.561 544.815 764.601 538.571 764.554C538.09 785.895 538.465 808.459 538.486 829.891C526.239 829.81 513.991 829.796 501.744 829.849C501.052 804.785 501.589 777.389 501.588 752.182C501.451 719.351 501.521 686.519 501.799 653.689L525.64 653.34ZM538.796 732.244C553.968 732.465 565.734 733.444 580.408 729.472C593.107 724.76 598.469 712.774 593.883 699.889C588.323 684.265 565.658 684.304 551.581 684.598C547.312 684.753 542.802 684.986 538.553 685.029C538.083 702.011 538.163 715.389 538.796 732.244Z"/><path fill="#FEFEFE" transform="matrix(0.807512 0 0 0.807512 0 -298.577)" d="M1147.13 653.711C1158.9 653.832 1170.67 653.793 1182.43 653.593L1182.52 829.9C1170.76 829.77 1159.01 829.702 1147.25 829.696L1147.28 817.844C1125.52 834.339 1109.06 838.172 1083.36 827.644C1081.13 826.616 1078.96 825.462 1076.86 824.187C1061.38 814.972 1050.73 799.719 1046.36 782.349C1041.69 763.877 1044.66 744.302 1054.61 728.048C1063.24 713.779 1077.3 703.622 1093.56 699.902C1113.97 695.133 1129.53 699.939 1146.7 710.579C1146.68 696.481 1145.61 666.78 1147.13 653.711ZM1119.85 800.313C1138.99 797.846 1152.49 780.29 1149.95 761.153C1147.42 742.017 1129.81 728.586 1110.68 731.195C1091.65 733.791 1078.3 751.284 1080.83 770.321C1083.35 789.357 1100.8 802.767 1119.85 800.313Z"/><path fill="#FEFEFE" transform="matrix(0.807512 0 0 0.807512 0 -298.577)" d="M697.559 698.42C734.934 695.125 767.903 722.751 771.193 760.122C774.483 797.493 746.847 830.453 709.471 833.737C672.104 837.019 639.149 809.395 635.86 772.033C632.571 734.671 660.193 701.715 697.559 698.42ZM709.337 797.784C727.328 794.369 739.109 776.975 735.603 759.004C732.098 741.032 714.644 729.339 696.688 732.933C678.858 736.502 667.263 753.805 670.744 771.651C674.224 789.497 691.473 801.176 709.337 797.784Z"/><path fill="#FEB408" transform="matrix(0.807512 0 0 0.807512 0 -298.577)" d="M1261.69 653.59C1275.08 653.672 1288.46 653.647 1301.85 653.515L1301.75 761.962L1322.91 761.385L1322.97 797.021C1315.91 796.93 1308.85 796.892 1301.79 796.909L1301.86 829.95C1290.04 829.747 1277.87 829.899 1266.02 829.905L1265.99 818.57L1266.05 796.602C1260.59 797.325 1246.35 797.072 1240.25 797.069L1193.21 797.073C1193.13 790.36 1192.34 767.953 1194.3 762.839C1201.16 744.894 1217.01 723.226 1227.44 707.067L1261.69 653.59ZM1237.05 762.083L1265.66 762.136C1265.84 755.467 1267.46 716.951 1265.01 714.014C1264.97 713.963 1264.92 713.922 1264.87 713.876L1236.28 761.125L1237.05 762.083Z"/><path fill="#FEFEFE" transform="matrix(0.807512 0 0 0.807512 0 -298.577)" d="M862.664 702.475L899.405 702.305L899.247 747.169L899.339 829.895L863.523 829.866L863.333 819.333C841.174 836.141 815.476 840.889 793.586 819.246C775.997 801.857 778.936 766.561 779.078 743.219C779.044 729.628 779.122 716.038 779.313 702.449L816.386 702.407C816.212 726.369 815.345 753.106 817.858 777.06C818.395 782.182 821.46 789.346 824.768 793.29C834.093 804.408 856.113 800.897 860.084 786.203C862.986 773.784 862.503 758.632 862.5 745.633C862.394 731.247 862.449 716.86 862.664 702.475Z"/><path fill="#FEFEFE" transform="matrix(0.807512 0 0 0.807512 0 -298.577)" d="M986.141 698.342C996.786 696.543 1012.85 701.734 1020.36 709.47C1038.62 728.259 1035.48 760.053 1035.47 784.244L1035.51 829.898L999.037 829.881C998.608 802.611 1003.2 767.94 993.655 741.795C988.201 726.858 972.033 731.244 961.394 737.262L953.79 742.87C953.541 753.219 952.69 763.781 952.455 774.322C952.223 792.845 952.215 811.371 952.432 829.894C940.5 829.811 928.568 829.8 916.636 829.862C915.831 797.679 916.878 765.07 916.279 732.854C916.094 722.857 916.09 712.359 916.429 702.376C928.438 702.411 940.447 702.38 952.456 702.284L952.322 713.432C964.521 703.943 971.018 700.425 986.141 698.342Z"/><path fill="#FEFEFE" transform="matrix(0.807512 0 0 0.807512 0 -298.577)" d="M306.621 801.072C334.174 797.889 359.11 817.591 362.384 845.129C365.658 872.668 346.036 897.666 318.505 901.03C290.846 904.41 265.703 884.679 262.414 857.012C259.125 829.345 278.94 804.27 306.621 801.072Z"/><path fill="#FEFEFE" transform="matrix(0.807512 0 0 0.807512 0 -298.577)" d="M305.403 595.696C333.056 591.813 358.573 611.217 362.216 638.899C365.859 666.582 346.233 691.926 318.516 695.328C291.138 698.689 266.167 679.356 262.568 652.011C258.969 624.666 278.087 599.532 305.403 595.696Z"/><path fill="#FEFEFE" transform="matrix(0.807512 0 0 0.807512 0 -298.577)" d="M410.551 697.659C437.87 693.538 463.362 712.331 467.5 739.645C471.638 766.959 452.856 792.458 425.541 796.611C398.205 800.767 372.678 781.969 368.536 754.634C364.395 727.298 383.21 701.785 410.551 697.659Z"/><path fill="#FEFEFE" transform="matrix(0.807512 0 0 0.807512 0 -298.577)" d="M199.866 697.638C227.216 693.264 252.906 711.969 257.138 739.338C261.371 766.708 242.531 792.297 215.137 796.387C187.943 800.447 162.578 781.777 158.376 754.608C154.175 727.438 172.715 701.98 199.866 697.638Z"/><path fill="#FEFEFE" transform="matrix(0.807512 0 0 0.807512 0 -298.577)" d="M390.077 800.435C396.918 802.618 403.825 804.586 410.789 806.339C403.303 820.292 394.147 829.114 382.724 839.538L373.24 846.245C371.415 838.122 370.005 832.972 367.027 825.245C377.447 816.207 381.983 811.471 390.077 800.435Z"/><path fill="#FEFEFE" transform="matrix(0.807512 0 0 0.807512 0 -298.577)" d="M233.798 800.719C237.146 802.848 245.293 813.276 248.604 816.689C252.004 820.192 253.592 821.505 257.612 824.665C255.593 831.321 253.887 838.392 252.147 845.151C249.31 843.261 246.47 841.184 243.682 839.207C233.542 832.383 220.472 816.812 214.45 806.296C222.373 805.199 226.51 803.921 233.798 800.719Z"/><path fill="#FEFEFE" transform="matrix(0.807512 0 0 0.807512 0 -298.577)" d="M250.728 650.763L251.432 651.056C252.884 653.374 256.179 667.474 257.463 671.493C246.461 679.261 242.924 683.043 234.731 693.878L225.871 690.556L215.662 687.216C223.487 671.266 235.844 660.049 250.728 650.763Z"/><path fill="#FEFEFE" transform="matrix(0.807512 0 0 0.807512 0 -298.577)" d="M373.117 649.927C388.926 658.418 401.226 672.202 410.497 687.37L402.202 689.658C398.395 691.009 394.468 692.545 390.672 693.971C382.683 683.055 378.59 678.579 367.831 670.464C370.554 663.998 371.756 656.806 373.117 649.927Z"/></g></svg>